<svg xmlns="http://www.w3.org/2000/svg" xmlns:xlink="http://www.w3.org/1999/xlink" xmlns:lucid="lucid" width="1822" height="778.17"><g transform="translate(681 931.3333333333334)" lucid:page-tab-id="0_0"><path d="M-100-480H20v120h-120v-120z" stroke="#fff" stroke-opacity="0" stroke-width="2" fill="#3b48cc"/><path d="M-40-460c-8.72 0-16.23 2.4-23.35 7.54-17.91 12.86-22 37.88-9.12 55.8l2.56-1.9c-11.84-16.47-8.1-39.46 8.4-51.3 16.54-11.9 39.5-8.18 51.4 8.36 4.72 6.52 6.88 13.43 6.88 21.47 0 8.1-2.15 14.95-6.87 21.47l2.56 1.9c5.12-7.1 7.52-14.56 7.52-23.3C-.02-442.07-17.92-460-40-460z" stroke="#fff" stroke-opacity="0" stroke-width="2" fill="#fff"/><path d="M-19.2-396.6v-5.83c0-.85-.73-1.58-1.58-1.58h-17.64v-9.62h17.64c.85 0 1.58-.73 1.58-1.58v-24.02c0-.85-.73-1.58-1.58-1.58h-38.44c-.84 0-1.58.73-1.58 1.58v24.02c0 .85.73 1.58 1.58 1.58h17.64v9.6h-17.64c-.84 0-1.58.74-1.58 1.6v5.83c-2.75.62-4.8 2.63-5.44 5.42-.85 3.9 1.58 7.73 5.44 8.64 3.9.85 7.76-1.58 8.6-5.47.9-3.85-1.53-7.74-5.38-8.6v-4.2h16v6.58c-2.8.67-4.8 2.68-5.44 5.42-.9 3.9 1.53 7.72 5.44 8.63 3.85.9 7.7-1.52 8.6-5.4.9-3.9-1.53-7.74-5.44-8.65v-6.56h16v4.2c-2.74.6-4.75 2.6-5.38 5.4-.9 3.9 1.53 7.73 5.38 8.64 3.9.85 7.77-1.58 8.66-5.47.85-3.85-1.58-7.74-5.44-8.6zm-14-30.52l10.78-8.7v17.28zm-6.8 1.4l-14.68-11.86h29.36zm-6.92-1.46l-10.66 8.64v-17.27zm2.6 2.07l3.32 2.73c.58.48 1.42.48 2 0l3.22-2.68 10.3 8.27h-29.2zm-10.9 35.5c0 2.2-1.78 4.02-4 4.02-2.16 0-3.96-1.83-3.96-4.02 0-2.18 1.8-4 3.96-4 2.22 0 4 1.82 4 4zm19.23 2.38c0 2.25-1.78 4-4 4-2.22 0-4-1.75-4-4 0-2.2 1.78-3.96 4-3.96 2.22 0 4 1.77 4 3.96zm15.22 1.64c-2.22 0-4-1.83-4-4.02 0-2.18 1.78-4 4-4 2.17 0 3.96 1.82 3.96 4 0 2.2-1.8 4.02-3.96 4.02z" stroke="#fff" stroke-opacity="0" stroke-width="2" fill="#fff"/><use xlink:href="#a" transform="matrix(1,0,0,1,-130,-351) translate(23.98148148148148 17.77777777777778)"/><use xlink:href="#b" transform="matrix(1,0,0,1,-130,-351) translate(111.57407407407408 17.77777777777778)"/><path d="M-580-480h120v120h-120v-120z" stroke="#fff" stroke-opacity="0" fill="#693cc5"/><path d="M-536.33-411.3c2.12.76 4.02 1.1 6.27 1.18 1.42.12 2.68-.23 3.86-1.07.92-.86 1.38-1.93 1.32-3.2.12-1.3-.3-2.47-1.25-3.4-1.26-.84-2.58-1.17-4.1-1.05-1.8.02-3.33.1-5.1.32v-2.26l.62-9.87h12.03v2.66H-532l-.43 6.7c1.1-.22 2.06-.3 3.2-.3 2.12-.15 3.96.48 5.58 1.86 1.43 1.4 2.12 3.18 2 5.18.07 2.08-.73 3.9-2.33 5.24-1.82 1.44-3.85 2.1-6.18 2-2.3 0-4.2-.4-6.3-1.33zM-510.2-420.9H-509.6c1.98-.14 3.72.42 5.25 1.7 1.37 1.3 2.02 2.93 1.9 4.8.07 2.06-.75 3.83-2.35 5.14-1.87 1.4-3.9 2.04-6.26 1.92-2.2 0-4.1-.42-6.12-1.3v-2.65c2.06.76 3.92 1.1 6.12 1.18 1.45.12 2.7-.26 3.87-1.1.97-.84 1.44-1.94 1.35-3.2 0-2.67-1.66-4-5.03-4-1.12 0-2.08.04-3.2.16v-2.18l6.94-7.55h-9.7v-2.7h13.44v2.62z" stroke="#fff" stroke-opacity="0" fill="#fff"/><path d="M-520-389.6c-.3 0-.57-.06-.82-.24-5.44-3.2-10.55-5.15-16.76-6.4-3.4-.58-14.4-3.2-14.4-11.18 0-3.62 1.42-6.04 3.2-9.06 2.76-4.1 4.17-8.23 4.36-13.15 0-4.74-1.22-8.7-3.84-12.67-.38-.6-.32-1.3.13-1.9l2.56-3.2c.5-.6 1.34-.76 2.04-.35 3.46 2 6.78 2.9 10.8 2.96 4.42.07 8.2-1.1 11.78-3.72.57-.4 1.34-.4 1.85 0 3.65 2.6 7.42 3.8 11.83 3.73 3.97-.05 7.36-1 10.8-2.95.72-.4 1.55-.24 2.06.36l2.55 3.2c.45.54.5 1.3.13 1.9-2.63 3.9-3.78 7.93-3.84 12.67 0 5.7 2.3 9.6 4.35 13.15 1.78 3.02 3.18 5.44 3.18 9.06 0 8-11 10.6-14.38 11.2-6.2 1.23-11.33 3.13-16.76 6.38-.26.18-.5.24-.83.24zm-24.93-53.6c2.5 4.27 3.64 8.48 3.64 13.4 0 6.57-2.6 11.13-4.78 14.74-1.6 2.84-2.7 4.74-2.7 7.46 0 5.68 9.8 7.76 11.7 8.1 6.34 1.25 11.46 3.2 17.02 6.4 5.57-3.2 10.75-5.14 17-6.4 2-.34 11.78-2.42 11.78-8.1 0-2.72-1.1-4.62-2.75-7.46-2.1-3.6-4.8-8.17-4.8-14.75.07-4.92 1.22-9.13 3.78-13.4l-1.02-1.23c-3.58 1.83-7.1 2.72-11.2 2.72-4.73.05-8.76-1.07-12.8-3.68-3.95 2.6-8.04 3.73-12.78 3.67-4.1 0-7.54-.9-11.2-2.73z" stroke="#fff" stroke-opacity="0" fill="#fff"/><path d="M-519.97-380c-.4 0-.72-.08-1.04-.32-5.68-4.08-11.2-6.56-18-8-13.18-2.4-21.02-9.67-21.02-19.26.16-4.88 1.44-9.04 4.24-13.12 1.76-2.95 3.2-5.5 3.2-9.03-.16-4.88-2.16-8.95-5.84-12.23-.72-.48-.88-1.52-.32-2.24.08 0 .08-.08.08-.08 0-.16 9.43-11.43 11.6-14.3.23-.5.7-.73 1.2-.73.55 0 .95.15 1.35.55 3.03 3.6 6.95 5.6 11.74 5.83 4.48 0 8-2 11.35-6.4.63-.7 1.75-.87 2.47-.23l.24.24c3.37 4.47 6.9 6.38 11.36 6.38 4.8-.23 8.7-2.23 11.75-5.83.4-.4.8-.56 1.37-.56.48 0 .96.23 1.2.7 2.16 2.9 11.5 14.16 11.6 14.32.23.32.4.72.3 1.2 0 .48-.23.8-.55 1.12-3.68 3.28-5.67 7.35-5.83 12.23 0 3.52 1.5 6.08 3.18 9.04 2.8 4.08 4.08 8.24 4.24 13.12 0 9.6-7.83 16.87-21.02 19.26-6.8 1.44-12.3 3.84-18 8-.23.16-.55.32-.87.32zm-35.1-63.4c3.85 3.84 5.77 8.3 5.85 13.67 0 4.4-1.84 7.6-3.68 10.7-1.92 3.45-3.76 6.57-3.76 11.53 0 11.67 14 15.1 18.23 15.9 6.95 1.45 12.63 3.85 18.46 7.84 5.76-4 11.43-6.4 18.4-7.83 4.22-.8 18.2-4.23 18.2-15.9 0-4.96-1.83-8-3.74-11.52-1.85-3.2-3.7-6.4-3.7-10.7.1-5.37 2-9.84 5.84-13.68-2.15-2.56-6.95-8.4-9.5-11.67-3.6 3.5-7.84 5.35-12.8 5.5-5.2 0-9.6-2.15-12.8-6.14-3.27 3.98-7.66 6.14-12.86 6.14-4.95-.16-9.2-2-12.8-5.5-2.3 3.26-7.18 9.1-9.34 11.66z" stroke="#fff" stroke-opacity="0" fill="#fff"/><use xlink:href="#c" transform="matrix(1,0,0,1,-610,-351) translate(1.172839506172835 17.77777777777778)"/><use xlink:href="#d" transform="matrix(1,0,0,1,-610,-351) translate(88.76543209876543 17.77777777777778)"/><use xlink:href="#e" transform="matrix(1,0,0,1,-610,-351) translate(154.1358024691358 17.77777777777778)"/><path d="M-620-297.5c0 11.05-8.95 20-20 20s-20-8.95-20-20 8.95-20 20-20 20 8.95 20 20z" stroke="#282c33" stroke-width="2" fill="#fff"/><use xlink:href="#f" transform="matrix(1,0,0,1,-655,-312.5) translate(8.83216049382716 19.65277777777778)"/><path d="M-620-251.67c0 11.05-8.95 20-20 20s-20-8.95-20-20c0-11.04 8.95-20 20-20s20 8.96 20 20z" stroke="#282c33" stroke-width="2" fill="#fff"/><use xlink:href="#g" transform="matrix(1,0,0,1,-655,-266.66666666666663) translate(8.83216049382716 19.65277777777778)"/><path d="M-600-317.33a6 6 0 0 1 6-6h288a6 6 0 0 1 6 6v39.66a6 6 0 0 1-6 6h-288a6 6 0 0 1-6-6z" stroke="#000" stroke-opacity="0" stroke-width="2" fill="#fff" fill-opacity="0"/><use xlink:href="#h" transform="matrix(1,0,0,1,-595,-318.33333333333337) translate(0 25.65277777777778)"/><use xlink:href="#i" transform="matrix(1,0,0,1,-595,-318.33333333333337) translate(88.70370370370371 25.65277777777778)"/><path d="M-600-271.5a6 6 0 0 1 6-6h288a6 6 0 0 1 6 6v39.67a6 6 0 0 1-6 6h-288a6 6 0 0 1-6-6z" stroke="#000" stroke-opacity="0" stroke-width="2" fill="#fff" fill-opacity="0"/><use xlink:href="#j" transform="matrix(1,0,0,1,-595,-272.5) translate(0 25.65277777777778)"/><use xlink:href="#k" transform="matrix(1,0,0,1,-595,-272.5) translate(72.71604938271605 25.65277777777778)"/><use xlink:href="#l" transform="matrix(1,0,0,1,-595,-272.5) translate(145.55555555555554 25.65277777777778)"/><path d="M-620-205.83c0 11.04-8.95 20-20 20s-20-8.96-20-20c0-11.05 8.95-20 20-20s20 8.95 20 20z" stroke="#282c33" stroke-width="2" fill="#fff"/><use xlink:href="#m" transform="matrix(1,0,0,1,-655,-220.83333333333326) translate(8.83216049382716 19.65277777777778)"/><path d="M-600-225.67a6 6 0 0 1 6-6h288a6 6 0 0 1 6 6V-186a6 6 0 0 1-6 6h-288a6 6 0 0 1-6-6z" stroke="#000" stroke-opacity="0" stroke-width="2" fill="#fff" fill-opacity="0"/><use xlink:href="#n" transform="matrix(1,0,0,1,-595,-226.6666666666666) translate(0 25.65277777777778)"/><use xlink:href="#o" transform="matrix(1,0,0,1,-595,-226.6666666666666) translate(45.67901234567901 25.65277777777778)"/><use xlink:href="#p" transform="matrix(1,0,0,1,-595,-226.6666666666666) translate(85.12345679012346 25.65277777777778)"/><path d="M-100-905.42H20v120h-120v-120z" stroke="#fff" stroke-opacity="0" stroke-width="2" fill="#3f8624"/><path d="M-1.7-841.36c-.47-2.48-3.3-4.24-5.3-5.52-.62-.4-2.3-1.05-2.46-1.6 0-.4 0-.8.16-1.2l1.6-11.47 1.4-10.17c.37-3.04-1.08-5.13-3.6-6.9-5.15-3.6-11.9-5.04-17.96-6-7.97-1.28-14.95-1.52-23-.72-7.28.48-13.34 1.92-20.08 4.8-3.38 1.6-7.9 4.1-7.3 8.42 1.55 12.98 3.46 25.96 5.23 38.94.75 5.92 1.6 11.85 2.36 17.78.3 2.48 1.7 4.4 4 5.37 4.9 2.64 11.03 3.44 16.63 3.92 7.73.7 14.32.47 22-.97 4.6-.8 13.18-2.24 13.95-8 .92-7.14 1.9-14.27 2.83-21.4l.38-2.16c2.6.64 10.05 2 9.13-3.13zm-40.65-40.86c9.66 0 20.63 1.13 29.22 5.85 1.38.72 4.44 2.33 3.52 4.33-.93 1.92-3.84 2.88-5.6 3.6-2.6.97-5 1.6-7.75 2.17-11.96 2.4-22.54 2.64-34.65.72-5.45-.56-9.97-1.92-14.88-4.33-1.15-.72-3.06-1.84-2.53-3.44.38-.88 1-1.52 1.83-2 3.76-2.4 7.2-3.85 11.58-4.65 6.6-1.6 12.43-2.32 19.25-2.25zm25.15 67.46c-.3 1.84-3.37 2.8-4.83 3.28-3.22 1.13-6.06 1.77-9.43 2.17-7.44.95-13.88.95-21.4 0-4.67-.4-8.58-1.45-12.8-3.54-1.14-.48-1.83-1.52-1.9-2.72-1.62-12.74-3.38-25.4-5.15-38.06l-1.85-13.77c3.84 2.1 7.36 3.37 11.66 4.1 4.68.95 8.6 1.43 13.35 1.75 9.2.64 17.1.25 26.22-1.44 4.83-.7 8.8-2.07 13.1-4.4l-3.37 25.08c-8.58-2.8-15.64-5.6-23.7-9.53-.37-.16-.68-.32-.98-.48-.46-.32-.3-.16-.54-.64-.38-.96-.46-1.6-1.3-2.4-.77-.57-1.6-.8-2.53-.73-2 .08-3.53 1.84-3.38 3.85.16 1.92 1.92 3.44 3.9 3.28.55-.08 1-.24 1.62-.48.6-.16.6-.16 1.22.16 8.2 4.02 15.33 6.98 24 9.87 1.22.4 1.22 0 1.22 1.04-.07.8-.15 1.53-.3 2.33l-1 7.6zm-24.7-37.9c0 .5-.6.4-.75.17-.23-.3.76-.7.76-.15zm31.52 11.22l.47-3.52c1.6.96 4.28 2.32 5.04 4.08-1.6.64-4.06-.16-5.5-.56z" stroke="#fff" stroke-opacity="0" stroke-width="2" fill="#fff"/><use xlink:href="#a" transform="matrix(1,0,0,1,-130,-776.4166666666667) translate(32.623456790123456 17.77777777777778)"/><use xlink:href="#q" transform="matrix(1,0,0,1,-130,-776.4166666666667) translate(120.21604938271605 17.77777777777778)"/><path d="M-400-867.92c0 11.05-8.95 20-20 20s-20-8.95-20-20c0-11.04 8.95-20 20-20s20 8.96 20 20z" stroke="#282c33" stroke-width="2" fill="#fff"/><use xlink:href="#r" transform="matrix(1,0,0,1,-435,-882.9166666666667) translate(8.83216049382716 19.65277777777778)"/><path d="M-380-887.75a6 6 0 0 1 6-6h268a6 6 0 0 1 6 6v39.67a6 6 0 0 1-6 6h-268a6 6 0 0 1-6-6z" stroke="#000" stroke-opacity="0" stroke-width="2" fill="#fff" fill-opacity="0"/><use xlink:href="#j" transform="matrix(1,0,0,1,-375,-888.7500000000001) translate(0 25.65277777777778)"/><use xlink:href="#s" transform="matrix(1,0,0,1,-375,-888.7500000000001) translate(72.71604938271605 25.65277777777778)"/><use xlink:href="#t" transform="matrix(1,0,0,1,-375,-888.7500000000001) translate(146.79012345679013 25.65277777777778)"/><use xlink:href="#u" transform="matrix(1,0,0,1,-375,-888.7500000000001) translate(178.82716049382717 25.65277777777778)"/><path d="M-400-822.08c0 11.04-8.95 20-20 20s-20-8.96-20-20c0-11.05 8.95-20 20-20s20 8.95 20 20z" stroke="#282c33" stroke-width="2" fill="#fff"/><use xlink:href="#v" transform="matrix(1,0,0,1,-435,-837.0833333333334) translate(8.83216049382716 19.65277777777778)"/><path d="M-380-841.92a6 6 0 0 1 6-6h268a6 6 0 0 1 6 6v39.67a6 6 0 0 1-6 6h-268a6 6 0 0 1-6-6z" stroke="#000" stroke-opacity="0" stroke-width="2" fill="#fff" fill-opacity="0"/><use xlink:href="#w" transform="matrix(1,0,0,1,-375,-842.9166666666667) translate(0 25.65277777777778)"/><use xlink:href="#s" transform="matrix(1,0,0,1,-375,-842.9166666666667) translate(61.666666666666664 25.65277777777778)"/><use xlink:href="#x" transform="matrix(1,0,0,1,-375,-842.9166666666667) translate(135.74074074074073 25.65277777777778)"/><path d="M340-910.83h120v120H340v-120z" stroke="#fff" stroke-opacity="0" fill="#d6242d"/><path d="M435.52-880.43h-71.04c-2.48 0-4.48 2-4.48 4.5v50.2c0 2.48 2 4.5 4.48 4.5h71.04c2.48 0 4.48-2.02 4.48-4.5v-50.2c0-2.5-2-4.5-4.48-4.5zm1.28 54.7c0 .7-.56 1.3-1.28 1.3h-71.04c-.72 0-1.28-.6-1.28-1.3v-50.2c0-.72.56-1.3 1.28-1.3h71.04c.72 0 1.28.6 1.28 1.3z" stroke="#fff" stroke-opacity="0" fill="#fff"/><path d="M404.8-859.63h16v3.2h-16v-3.2zM427.2-859.63h3.2v3.2h-3.2v-3.2zM397.92-854.33c-.3-.35-.67-.52-1.12-.52h-22.4v-8c.03-1.85.86-3.45 2.4-4.53 1.7-1.3 3.5-1.86 5.6-1.86 2.18-.04 4.06.65 5.76 2.03 1.4 1.07 2.18 2.6 2.24 4.36v8h3.2v-8.65c-.06-2.63-1.25-4.83-3.4-6.4-2.33-1.76-4.86-2.58-7.8-2.53-6.18 0-11.2 4-11.2 8.94v8.65H368c-.9 0-1.6.73-1.6 1.6v22.42c0 .86.7 1.6 1.6 1.6h28.8c.9 0 1.6-.74 1.6-1.6v-22.42c0-.43-.16-.78-.45-1.08zm-2.72 7.5h-4.8v3.2h4.8v3.2h-4.8v3.2h4.8v4.8h-25.6v-19.18h25.6z" stroke="#fff" stroke-opacity="0" fill="#fff"/><path d="M382.4-849.12c-2 0-3.7 1.2-4.38 3.07-.9 2.43.35 5.13 2.78 6.02v4.4h3.2v-4.4c1.88-.7 3.06-2.4 3.07-4.38 0-2.6-2.08-4.7-4.67-4.72zm0 6.72c-1.12 0-2.03-.9-2.03-2.03s.9-2.03 2.03-2.03c1.12 0 2.04.9 2.04 2.03 0 1.12-.92 2.03-2.04 2.03zM404.8-851.63H416v3.2h-11.2v-3.2zM422.4-851.63h8v3.2h-8v-3.2zM404.8-843.63h20.8v3.2h-20.8v-3.2z" stroke="#fff" stroke-opacity="0" fill="#fff"/><use xlink:href="#y" transform="matrix(1,0,0,1,310,-781.8333333333334) translate(42.314814814814824 17.77777777777778)"/><use xlink:href="#z" transform="matrix(1,0,0,1,310,-781.8333333333334) translate(98.24074074074073 17.77777777777778)"/><path d="M520-873.75c0 11.05-8.95 20-20 20s-20-8.95-20-20 8.95-20 20-20 20 8.95 20 20z" stroke="#282c33" stroke-width="2" fill="#fff"/><use xlink:href="#A" transform="matrix(1,0,0,1,485,-888.7500000000001) translate(8.83216049382716 19.65277777777778)"/><path d="M540-899.42a6 6 0 0 1 6-6h338a6 6 0 0 1 6 6v51.34a6 6 0 0 1-6 6H546a6 6 0 0 1-6-6z" stroke="#000" stroke-opacity="0" stroke-width="2" fill="#fff" fill-opacity="0"/><use xlink:href="#j" transform="matrix(1,0,0,1,545,-900.4166666666667) translate(0 31.27777777777778)"/><use xlink:href="#B" transform="matrix(1,0,0,1,545,-900.4166666666667) translate(72.71604938271605 31.27777777777778)"/><use xlink:href="#t" transform="matrix(1,0,0,1,545,-900.4166666666667) translate(138.0246913580247 31.27777777777778)"/><use xlink:href="#C" transform="matrix(1,0,0,1,545,-900.4166666666667) translate(170.06172839506175 31.27777777777778)"/><use xlink:href="#D" transform="matrix(1,0,0,1,545,-900.4166666666667) translate(225.98765432098767 31.27777777777778)"/><path d="M520-827.92c0 11.05-8.95 20-20 20s-20-8.95-20-20c0-11.04 8.95-20 20-20s20 8.96 20 20z" stroke="#282c33" stroke-width="2" fill="#fff"/><use xlink:href="#E" transform="matrix(1,0,0,1,485,-842.9166666666669) translate(8.83216049382716 19.65277777777778)"/><path d="M540-853.58a6 6 0 0 1 6-6h338a6 6 0 0 1 6 6v51.33a6 6 0 0 1-6 6H546a6 6 0 0 1-6-6z" stroke="#000" stroke-opacity="0" stroke-width="2" fill="#fff" fill-opacity="0"/><use xlink:href="#j" transform="matrix(1,0,0,1,545,-854.5833333333335) translate(0 31.27777777777778)"/><use xlink:href="#F" transform="matrix(1,0,0,1,545,-854.5833333333335) translate(72.71604938271605 31.27777777777778)"/><use xlink:href="#t" transform="matrix(1,0,0,1,545,-854.5833333333335) translate(124.44444444444444 31.27777777777778)"/><use xlink:href="#C" transform="matrix(1,0,0,1,545,-854.5833333333335) translate(156.48148148148147 31.27777777777778)"/><use xlink:href="#D" transform="matrix(1,0,0,1,545,-854.5833333333335) translate(212.4074074074074 31.27777777777778)"/><path d="M340-480h120v120H340v-120z" stroke="#fff" stroke-opacity="0" stroke-width="2" fill="#d86613"/><path d="M436.8-380h-19.72c-.64 0-1.15-.32-1.4-.88l-27.92-58.32h-11.78c-.9 0-1.6-.72-1.6-1.6v-17.6c0-.88.7-1.6 1.6-1.6h24.65c.64 0 1.15.32 1.4.88l27.8 58.32h6.97c.9 0 1.6.72 1.6 1.6v17.6c0 .88-.7 1.6-1.6 1.6zm-18.7-3.2h17.1v-14.4h-6.4c-.64 0-1.16-.32-1.4-.88l-27.8-58.32H377.6v14.4h11.2c.65 0 1.16.32 1.48.88z" stroke="#fff" stroke-opacity="0" stroke-width="2" fill="#fff"/><path d="M383.96-380h-20.8c-.55 0-1.05-.3-1.37-.73-.33-.54-.33-1.12-.08-1.6l21.78-45.46c.24-.58.8-.92 1.4-.92.65 0 1.18.34 1.46.88l10.4 21.43c.26.43.26.92 0 1.4L385.42-381c-.2.63-.77 1.02-1.44 1.02zm-18.24-3.22h17.24l10.6-22.36-8.6-17.88z" stroke="#fff" stroke-opacity="0" stroke-width="2" fill="#fff"/><use xlink:href="#y" transform="matrix(1,0,0,1,310,-351) translate(21.944444444444443 17.77777777777778)"/><use xlink:href="#G" transform="matrix(1,0,0,1,310,-351) translate(77.87037037037035 17.77777777777778)"/><path d="M280-297.5c0 11.05-8.95 20-20 20s-20-8.95-20-20 8.95-20 20-20 20 8.95 20 20z" stroke="#282c33" stroke-width="2" fill="#fff"/><use xlink:href="#H" transform="matrix(1,0,0,1,245,-312.49999999999994) translate(8.83216049382716 19.65277777777778)"/><path d="M300-323.17a6 6 0 0 1 6-6h338a6 6 0 0 1 6 6v51.34a6 6 0 0 1-6 6H306a6 6 0 0 1-6-6z" stroke="#000" stroke-opacity="0" stroke-width="2" fill="#fff" fill-opacity="0"/><use xlink:href="#j" transform="matrix(1,0,0,1,305,-324.16666666666663) translate(0 31.27777777777778)"/><use xlink:href="#I" transform="matrix(1,0,0,1,305,-324.16666666666663) translate(72.71604938271605 31.27777777777778)"/><use xlink:href="#J" transform="matrix(1,0,0,1,305,-324.16666666666663) translate(159.07407407407408 31.27777777777778)"/><path d="M-160-297.5c0 11.05-8.95 20-20 20s-20-8.95-20-20 8.95-20 20-20 20 8.95 20 20z" stroke="#282c33" stroke-width="2" fill="#fff"/><use xlink:href="#K" transform="matrix(1,0,0,1,-195,-312.5) translate(2.6593209876543202 19.65277777777778)"/><path d="M-140-323.17a6 6 0 0 1 6-6h338a6 6 0 0 1 6 6v51.34a6 6 0 0 1-6 6h-338a6 6 0 0 1-6-6z" stroke="#000" stroke-opacity="0" stroke-width="2" fill="#fff" fill-opacity="0"/><use xlink:href="#L" transform="matrix(1,0,0,1,-135,-324.1666666666667) translate(0 31.27777777777778)"/><use xlink:href="#M" transform="matrix(1,0,0,1,-135,-324.1666666666667) translate(61.604938271604944 31.27777777777778)"/><use xlink:href="#N" transform="matrix(1,0,0,1,-135,-324.1666666666667) translate(144.1358024691358 31.27777777777778)"/><use xlink:href="#O" transform="matrix(1,0,0,1,-135,-324.1666666666667) translate(165.12345679012344 31.27777777777778)"/><use xlink:href="#P" transform="matrix(1,0,0,1,-135,-324.1666666666667) translate(229.32098765432096 31.27777777777778)"/><path d="M-160-251.67c0 11.05-8.95 20-20 20s-20-8.95-20-20c0-11.04 8.95-20 20-20s20 8.96 20 20z" stroke="#282c33" stroke-width="2" fill="#fff"/><use xlink:href="#Q" transform="matrix(1,0,0,1,-195,-266.66666666666663) translate(3.492654320987654 19.65277777777778)"/><path d="M-140-277.33a6 6 0 0 1 6-6h338a6 6 0 0 1 6 6V-226a6 6 0 0 1-6 6h-338a6 6 0 0 1-6-6z" stroke="#000" stroke-opacity="0" stroke-width="2" fill="#fff" fill-opacity="0"/><use xlink:href="#j" transform="matrix(1,0,0,1,-135,-278.3333333333333) translate(0 31.27777777777778)"/><use xlink:href="#R" transform="matrix(1,0,0,1,-135,-278.3333333333333) translate(72.71604938271605 31.27777777777778)"/><use xlink:href="#S" transform="matrix(1,0,0,1,-135,-278.3333333333333) translate(139.320987654321 31.27777777777778)"/><use xlink:href="#T" transform="matrix(1,0,0,1,-135,-278.3333333333333) translate(220.67901234567898 31.27777777777778)"/><use xlink:href="#U" transform="matrix(1,0,0,1,-135,-278.3333333333333) translate(272.4074074074074 31.27777777777778)"/><path d="M-346.94-419.52h-96.68v-.96h96.68zm246.44 0h-112.56v-.96h112.56z" stroke="#3a414a" stroke-width=".05" fill="#3a414a"/><path d="M-100-419.52h-.5v-.96h.5z" fill="#3a414a"/><path stroke="#3a414a" stroke-width=".05" fill="#3a414a"/><path d="M-444.12-415.37l-14.26-4.63 14.26-4.63z" fill="#3a414a"/><path d="M-443.64-414.7l-16.28-5.3 16.28-5.3zm-13.2-5.3l12.25 3.98v-7.96z" stroke="#3a414a" stroke-width=".05" fill="#3a414a"/><use xlink:href="#V" transform="matrix(1,0,0,1,-346.9382716049383,-430.6666666666667) translate(0 14.222222222222223)"/><use xlink:href="#W" transform="matrix(1,0,0,1,-346.9382716049383,-430.6666666666667) translate(50.22222222222223 14.222222222222223)"/><use xlink:href="#X" transform="matrix(1,0,0,1,-346.9382716049383,-430.6666666666667) translate(67.95061728395063 14.222222222222223)"/><path d="M400.48-496.4h-.96v-128.35h.96zm0-149.68h-.96v-144.25h.96z" stroke="#3a414a" stroke-width=".05" fill="#3a414a"/><path d="M400.48-790.32h-.96v-.5h.96z" fill="#3a414a"/><path stroke="#3a414a" stroke-width=".05" fill="#3a414a"/><path d="M400-481.62l-4.63-14.26h9.26z" fill="#3a414a"/><path d="M400-480.08l-5.3-16.28h10.6zm-3.98-15.33l3.98 12.24 3.98-12.25z" stroke="#3a414a" stroke-width=".05" fill="#3a414a"/><g><use xlink:href="#Y" transform="matrix(1,0,0,1,317.23456790123464,-646.0833333333334) translate(0 14.222222222222223)"/><use xlink:href="#Z" transform="matrix(1,0,0,1,317.23456790123464,-646.0833333333334) translate(37.43209876543211 14.222222222222223)"/><use xlink:href="#aa" transform="matrix(1,0,0,1,317.23456790123464,-646.0833333333334) translate(127.11111111111111 14.222222222222223)"/></g><path d="M810-480h120v120H810v-120z" stroke="#fff" stroke-opacity="0" fill="#cc2264"/><path d="M860.38-403.2h-17.6c-1.84-.05-3.44-.53-5.04-1.48-5.04-3.12-7.84-8.3-7.76-14.27-.32-6.8 3.92-12.73 10.4-14.63v-1.27c.24-8.5 4.8-15.7 12.56-19.34 8.24-3.63 17.36-1.84 23.6 4.7 2.17 2.18 3.6 4.3 4.8 7.04 1.77-1.37 3.7-2.06 5.93-2.06 4.32 0 9.28 3.28 10.16 10.52 4.08 1 12.56 4.33 12.56 15.2.23 5.72-2.57 10.74-7.6 13.43l-1.6-2.8c4-2.16 6.15-6.13 5.9-10.62 0-9.4-7.75-11.72-11.2-12.3-.4-.1-.8-.3-1.03-.7-.24-.3-.32-.72-.24-1.15-.48-5.8-3.84-8.4-7.04-8.4-2.17.05-3.93 1-5.2 2.75-.33.47-.9.7-1.53.63-.56-.1-1.04-.47-1.28-1.05-1.05-3.23-2.66-5.76-4.98-8.2-5.36-5.5-13.04-7.02-20.08-3.96-6.4 3.12-10.32 9.14-10.56 16.28 0 .8.08 1.48.16 2.22.08.84-.48 1.63-1.28 1.8-5.68 1.15-9.6 6.18-9.28 11.93-.16 4.87 2.16 9.04 6.32 11.52 1.04.7 2.08 1 3.28 1h17.6z" stroke="#fff" stroke-opacity="0" fill="#fff"/><path d="M908.23-393.6L896.85-405c2.18-4.86 2.04-9.9-.37-14.64-4.28-8.35-14.53-11.68-22.86-7.37-8.33 4.26-11.66 14.5-7.38 22.8 4.28 8.35 14.5 11.67 22.86 7.4l11.2 11.18c1.1 1.13 2.42 1.62 3.97 1.62 1.55 0 2.9-.5 4-1.62h.05c2.14-2.24 2.14-5.8-.1-8zm-26.87-4.54c-7.6 0-13.75-6.15-13.75-13.74 0-7.58 6.16-13.74 13.76-13.74s13.75 6.16 13.75 13.74c0 7.6-6.13 13.74-13.74 13.74zM906-387.9c-.96.9-2.5.9-3.46 0l-10.66-10.7c1.37-1.07 2.4-2.14 3.42-3.58l10.7 10.82c.96.94.96 2.47 0 3.46z" stroke="#fff" stroke-opacity="0" fill="#fff"/><path d="M885.76-419.3l-1.9 2.56c-1.2-.88-2.53-1.2-4-1-2.94.43-4.98 3.18-4.54 6.12.18 1.5.9 2.73 2.13 3.62l-1.85 2.5c-3.76-2.9-4.47-8.3-1.58-12.05 2.83-3.67 8.03-4.46 11.8-1.76z" stroke="#fff" stroke-opacity="0" fill="#fff"/><g><use xlink:href="#y" transform="matrix(1,0,0,1,780,-351.0000000000001) translate(2.037037037037038 17.77777777777778)"/><use xlink:href="#ab" transform="matrix(1,0,0,1,780,-351.0000000000001) translate(57.962962962962955 17.77777777777778)"/></g><path d="M750-297.5c0 11.05-8.95 20-20 20s-20-8.95-20-20 8.95-20 20-20 20 8.95 20 20z" stroke="#282c33" stroke-width="2" fill="#fff"/><g><use xlink:href="#ac" transform="matrix(1,0,0,1,715,-312.49999999999994) translate(8.83216049382716 19.65277777777778)"/></g><path d="M770-323.17a6 6 0 0 1 6-6h338a6 6 0 0 1 6 6v51.34a6 6 0 0 1-6 6H776a6 6 0 0 1-6-6z" stroke="#000" stroke-opacity="0" stroke-width="2" fill="#fff" fill-opacity="0"/><g><use xlink:href="#j" transform="matrix(1,0,0,1,775,-324.16666666666663) translate(0 31.27777777777778)"/><use xlink:href="#ad" transform="matrix(1,0,0,1,775,-324.16666666666663) translate(72.71604938271605 31.27777777777778)"/><use xlink:href="#ae" transform="matrix(1,0,0,1,775,-324.16666666666663) translate(115.92592592592592 31.27777777777778)"/><use xlink:href="#t" transform="matrix(1,0,0,1,775,-324.16666666666663) translate(183.76543209876542 31.27777777777778)"/><use xlink:href="#D" transform="matrix(1,0,0,1,775,-324.16666666666663) translate(215.80246913580245 31.27777777777778)"/></g><path d="M551.2-419.52h-90.7v-.96h90.7zm242.4 0h-74.8v-.96h74.82z" stroke="#3a414a" stroke-width=".05" fill="#3a414a"/><path d="M460.5-419.52h-.5v-.96h.5z" fill="#3a414a"/><path stroke="#3a414a" stroke-width=".05" fill="#3a414a"/><path d="M808.38-420l-14.26 4.63v-9.26z" fill="#3a414a"/><path d="M809.92-420l-16.28 5.3v-10.6zm-15.33 3.98l12.24-3.98-12.25-3.98z" stroke="#3a414a" stroke-width=".05" fill="#3a414a"/><g><use xlink:href="#af" transform="matrix(1,0,0,1,551.1975308641975,-430.6666666666667) translate(0 14.222222222222223)"/><use xlink:href="#ag" transform="matrix(1,0,0,1,551.1975308641975,-430.6666666666667) translate(60.14814814814816 14.222222222222223)"/><use xlink:href="#ah" transform="matrix(1,0,0,1,551.1975308641975,-430.6666666666667) translate(97.53086419753087 14.222222222222223)"/></g><path d="M84.9-419.52H20.5v-.96h64.4zm238.72 0h-48.5v-.96h48.5z" stroke="#3a414a" stroke-width=".05" fill="#3a414a"/><path d="M20.5-419.52H20v-.96h.5z" fill="#3a414a"/><path stroke="#3a414a" stroke-width=".05" fill="#3a414a"/><path d="M338.38-420l-14.26 4.63v-9.26z" fill="#3a414a"/><path d="M339.92-420l-16.28 5.3v-10.6zm-15.33 3.98l12.25-3.98-12.26-3.98z" stroke="#3a414a" stroke-width=".05" fill="#3a414a"/><g><use xlink:href="#ai" transform="matrix(1,0,0,1,84.88888888888887,-430.6666666666667) translate(0 14.222222222222223)"/><use xlink:href="#aj" transform="matrix(1,0,0,1,84.88888888888887,-430.6666666666667) translate(37.48148148148149 14.222222222222223)"/><use xlink:href="#ak" transform="matrix(1,0,0,1,84.88888888888887,-430.6666666666667) translate(110.41975308641977 14.222222222222223)"/><use xlink:href="#al" transform="matrix(1,0,0,1,84.88888888888887,-430.6666666666667) translate(135.11111111111114 14.222222222222223)"/></g><path d="M-39.52-480.5h-.95v-130.88h.95zm0-173.54h-.95v-115h.95z" stroke="#3a414a" stroke-width=".05" fill="#3a414a"/><path d="M-39.52-480h-.95v-.5h.95z" fill="#3a414a"/><path stroke="#3a414a" stroke-width=".05" fill="#3a414a"/><path d="M-35.37-769.53h-9.27L-40-783.8z" fill="#3a414a"/><path d="M-34.7-769.06h-10.6l5.3-16.28zM-44-770h7.96L-40-782.27z" stroke="#3a414a" stroke-width=".05" fill="#3a414a"/><g><use xlink:href="#ai" transform="matrix(1,0,0,1,-103.03703703703704,-654.0416666666667) translate(21.09141975308642 14.222222222222223)"/><use xlink:href="#am" transform="matrix(1,0,0,1,-103.03703703703704,-654.0416666666667) translate(58.57290123456791 14.222222222222223)"/><use xlink:href="#an" transform="matrix(1,0,0,1,-103.03703703703704,-654.0416666666667) translate(85.23956790123458 14.222222222222223)"/><use xlink:href="#ao" transform="matrix(1,0,0,1,-103.03703703703704,-654.0416666666667) translate(0.005000000000002558 35.55555555555556)"/><use xlink:href="#ap" transform="matrix(1,0,0,1,-103.03703703703704,-654.0416666666667) translate(70.96796296296296 35.55555555555556)"/></g><path d="M-160-205.83c0 11.04-8.95 20-20 20s-20-8.96-20-20c0-11.05 8.95-20 20-20s20 8.95 20 20z" stroke="#282c33" stroke-width="2" fill="#fff"/><g><use xlink:href="#aq" transform="matrix(1,0,0,1,-195,-220.8333333333333) translate(2.6593209876543202 19.65277777777778)"/></g><path d="M-140-231.5a6 6 0 0 1 6-6h338a6 6 0 0 1 6 6v51.33a6 6 0 0 1-6 6h-338a6 6 0 0 1-6-6z" stroke="#000" stroke-opacity="0" stroke-width="2" fill="#fff" fill-opacity="0"/><g><use xlink:href="#j" transform="matrix(1,0,0,1,-135.00000000000003,-232.49999999999991) translate(0 31.27777777777778)"/><use xlink:href="#ar" transform="matrix(1,0,0,1,-135.00000000000003,-232.49999999999991) translate(72.71604938271605 31.27777777777778)"/><use xlink:href="#U" transform="matrix(1,0,0,1,-135.00000000000003,-232.49999999999991) translate(210.74074074074076 31.27777777777778)"/></g><defs><path fill="#3a414a" d="M205 0l-28-72H64L36 0H1l101-248h38L239 0h-34zm-38-99l-47-123c-12 45-31 82-46 123h93" id="as"/><path fill="#3a414a" d="M210-169c-67 3-38 105-44 169h-31v-121c0-29-5-50-35-48C34-165 62-65 56 0H25l-1-190h30c1 10-1 24 2 32 10-44 99-50 107 0 11-21 27-35 58-36 85-2 47 119 55 194h-31v-121c0-29-5-49-35-48" id="at"/><path fill="#3a414a" d="M141-36C126-15 110 5 73 4 37 3 15-17 15-53c-1-64 63-63 125-63 3-35-9-54-41-54-24 1-41 7-42 31l-33-3c5-37 33-52 76-52 45 0 72 20 72 64v82c-1 20 7 32 28 27v20c-31 9-61-2-59-35zM48-53c0 20 12 33 32 33 41-3 63-29 60-74-43 2-92-5-92 41" id="au"/><path fill="#3a414a" d="M9 0v-24l116-142H16v-24h144v24L44-24h123V0H9" id="av"/><path fill="#3a414a" d="M100-194c62-1 85 37 85 99 1 63-27 99-86 99S16-35 15-95c0-66 28-99 85-99zM99-20c44 1 53-31 53-75 0-43-8-75-51-75s-53 32-53 75 10 74 51 75" id="aw"/><path fill="#3a414a" d="M117-194c89-4 53 116 60 194h-32v-121c0-31-8-49-39-48C34-167 62-67 57 0H25l-1-190h30c1 10-1 24 2 32 11-22 29-35 61-36" id="ax"/><g id="a"><use transform="matrix(0.06172839506172839,0,0,0.06172839506172839,0,0)" xlink:href="#as"/><use transform="matrix(0.06172839506172839,0,0,0.06172839506172839,14.814814814814813,0)" xlink:href="#at"/><use transform="matrix(0.06172839506172839,0,0,0.06172839506172839,33.2716049382716,0)" xlink:href="#au"/><use transform="matrix(0.06172839506172839,0,0,0.06172839506172839,45.61728395061728,0)" xlink:href="#av"/><use transform="matrix(0.06172839506172839,0,0,0.06172839506172839,56.72839506172839,0)" xlink:href="#aw"/><use transform="matrix(0.06172839506172839,0,0,0.06172839506172839,69.07407407407408,0)" xlink:href="#ax"/></g><path fill="#3a414a" d="M185-189c-5-48-123-54-124 2 14 75 158 14 163 119 3 78-121 87-175 55-17-10-28-26-33-46l33-7c5 56 141 63 141-1 0-78-155-14-162-118-5-82 145-84 179-34 5 7 8 16 11 25" id="ay"/><path fill="#3a414a" d="M30 0v-248h187v28H63v79h144v27H63v87h162V0H30" id="az"/><g id="b"><use transform="matrix(0.06172839506172839,0,0,0.06172839506172839,0,0)" xlink:href="#ay"/><use transform="matrix(0.06172839506172839,0,0,0.06172839506172839,14.814814814814813,0)" xlink:href="#az"/><use transform="matrix(0.06172839506172839,0,0,0.06172839506172839,29.629629629629626,0)" xlink:href="#ay"/></g><g id="c"><use transform="matrix(0.06172839506172839,0,0,0.06172839506172839,0,0)" xlink:href="#as"/><use transform="matrix(0.06172839506172839,0,0,0.06172839506172839,14.814814814814813,0)" xlink:href="#at"/><use transform="matrix(0.06172839506172839,0,0,0.06172839506172839,33.2716049382716,0)" xlink:href="#au"/><use transform="matrix(0.06172839506172839,0,0,0.06172839506172839,45.61728395061728,0)" xlink:href="#av"/><use transform="matrix(0.06172839506172839,0,0,0.06172839506172839,56.72839506172839,0)" xlink:href="#aw"/><use transform="matrix(0.06172839506172839,0,0,0.06172839506172839,69.07407407407408,0)" xlink:href="#ax"/></g><path fill="#3a414a" d="M233-177c-1 41-23 64-60 70L243 0h-38l-65-103H63V0H30v-248c88 3 205-21 203 71zM63-129c60-2 137 13 137-47 0-61-80-42-137-45v92" id="aA"/><path fill="#3a414a" d="M84 4C-5 8 30-112 23-190h32v120c0 31 7 50 39 49 72-2 45-101 50-169h31l1 190h-30c-1-10 1-25-2-33-11 22-28 36-60 37" id="aB"/><path fill="#3a414a" d="M59-47c-2 24 18 29 38 22v24C64 9 27 4 27-40v-127H5v-23h24l9-43h21v43h35v23H59v120" id="aC"/><path fill="#3a414a" d="M100-194c63 0 86 42 84 106H49c0 40 14 67 53 68 26 1 43-12 49-29l28 8c-11 28-37 45-77 45C44 4 14-33 15-96c1-61 26-98 85-98zm52 81c6-60-76-77-97-28-3 7-6 17-6 28h103" id="aD"/><g id="d"><use transform="matrix(0.06172839506172839,0,0,0.06172839506172839,0,0)" xlink:href="#aA"/><use transform="matrix(0.06172839506172839,0,0,0.06172839506172839,15.987654320987653,0)" xlink:href="#aw"/><use transform="matrix(0.06172839506172839,0,0,0.06172839506172839,28.333333333333332,0)" xlink:href="#aB"/><use transform="matrix(0.06172839506172839,0,0,0.06172839506172839,40.67901234567901,0)" xlink:href="#aC"/><use transform="matrix(0.06172839506172839,0,0,0.06172839506172839,46.851851851851855,0)" xlink:href="#aD"/></g><path fill="#3a414a" d="M54-142c48-35 137-8 131 61C196 18 31 33 14-55l32-4c7 23 22 37 52 37 35-1 51-22 54-58 4-55-73-65-99-34H22l8-134h141v27H59" id="aE"/><path fill="#3a414a" d="M126-127c33 6 58 20 58 59 0 88-139 92-164 29-3-8-5-16-6-25l32-3c6 27 21 44 54 44 32 0 52-15 52-46 0-38-36-46-79-43v-28c39 1 72-4 72-42 0-27-17-43-46-43-28 0-47 15-49 41l-32-3c6-42 35-63 81-64 48-1 79 21 79 65 0 36-21 52-52 59" id="aF"/><g id="e"><use transform="matrix(0.06172839506172839,0,0,0.06172839506172839,0,0)" xlink:href="#aE"/><use transform="matrix(0.06172839506172839,0,0,0.06172839506172839,12.345679012345679,0)" xlink:href="#aF"/></g><path fill="#3a414a" d="M27 0v-27h64v-190l-56 39v-29l58-41h29v221h61V0H27" id="aG"/><use transform="matrix(0.06172839506172839,0,0,0.06172839506172839,0,0)" xlink:href="#aG" id="f"/><path fill="#3a414a" d="M101-251c82-7 93 87 43 132L82-64C71-53 59-42 53-27h129V0H18c2-99 128-94 128-182 0-28-16-43-45-43s-46 15-49 41l-32-3c6-41 34-60 81-64" id="aH"/><use transform="matrix(0.06172839506172839,0,0,0.06172839506172839,0,0)" xlink:href="#aH" id="g"/><path fill="#3a414a" d="M177-190C167-65 218 103 67 71c-23-6-38-20-44-43l32-5c15 47 100 32 89-28v-30C133-14 115 1 83 1 29 1 15-40 15-95c0-56 16-97 71-98 29-1 48 16 59 35 1-10 0-23 2-32h30zM94-22c36 0 50-32 50-73 0-42-14-75-50-75-39 0-46 34-46 75s6 73 46 73" id="aI"/><path fill="#3a414a" d="M24-231v-30h32v30H24zM24 0v-190h32V0H24" id="aJ"/><path fill="#3a414a" d="M135-143c-3-34-86-38-87 0 15 53 115 12 119 90S17 21 10-45l28-5c4 36 97 45 98 0-10-56-113-15-118-90-4-57 82-63 122-42 12 7 21 19 24 35" id="aK"/><path fill="#3a414a" d="M114-163C36-179 61-72 57 0H25l-1-190h30c1 12-1 29 2 39 6-27 23-49 58-41v29" id="aL"/><g id="h"><use transform="matrix(0.06172839506172839,0,0,0.06172839506172839,0,0)" xlink:href="#aA"/><use transform="matrix(0.06172839506172839,0,0,0.06172839506172839,15.987654320987653,0)" xlink:href="#aD"/><use transform="matrix(0.06172839506172839,0,0,0.06172839506172839,28.333333333333332,0)" xlink:href="#aI"/><use transform="matrix(0.06172839506172839,0,0,0.06172839506172839,40.67901234567901,0)" xlink:href="#aJ"/><use transform="matrix(0.06172839506172839,0,0,0.06172839506172839,45.55555555555556,0)" xlink:href="#aK"/><use transform="matrix(0.06172839506172839,0,0,0.06172839506172839,56.66666666666667,0)" xlink:href="#aC"/><use transform="matrix(0.06172839506172839,0,0,0.06172839506172839,62.83950617283951,0)" xlink:href="#aD"/><use transform="matrix(0.06172839506172839,0,0,0.06172839506172839,75.18518518518519,0)" xlink:href="#aL"/></g><path fill="#3a414a" d="M179-190L93 31C79 59 56 82 12 73V49c39 6 53-20 64-50L1-190h34L92-34l54-156h33" id="aM"/><path fill="#3a414a" d="M16-82v-28h88v28H16" id="aN"/><path fill="#3a414a" d="M85-194c31 0 48 13 60 33l-1-100h32l1 261h-30c-2-10 0-23-3-31C134-8 116 4 85 4 32 4 16-35 15-94c0-66 23-100 70-100zm9 24c-40 0-46 34-46 75 0 40 6 74 45 74 42 0 51-32 51-76 0-42-9-74-50-73" id="aO"/><path fill="#3a414a" d="M33 0v-38h34V0H33" id="aP"/><path fill="#3a414a" d="M96-169c-40 0-48 33-48 73s9 75 48 75c24 0 41-14 43-38l32 2c-6 37-31 61-74 61-59 0-76-41-82-99-10-93 101-131 147-64 4 7 5 14 7 22l-32 3c-4-21-16-35-41-35" id="aQ"/><g id="i"><use transform="matrix(0.06172839506172839,0,0,0.06172839506172839,0,0)" xlink:href="#aM"/><use transform="matrix(0.06172839506172839,0,0,0.06172839506172839,11.11111111111111,0)" xlink:href="#aw"/><use transform="matrix(0.06172839506172839,0,0,0.06172839506172839,23.45679012345679,0)" xlink:href="#aB"/><use transform="matrix(0.06172839506172839,0,0,0.06172839506172839,35.80246913580247,0)" xlink:href="#aL"/><use transform="matrix(0.06172839506172839,0,0,0.06172839506172839,43.148148148148145,0)" xlink:href="#aN"/><use transform="matrix(0.06172839506172839,0,0,0.06172839506172839,50.49382716049382,0)" xlink:href="#aO"/><use transform="matrix(0.06172839506172839,0,0,0.06172839506172839,62.8395061728395,0)" xlink:href="#aw"/><use transform="matrix(0.06172839506172839,0,0,0.06172839506172839,75.18518518518518,0)" xlink:href="#at"/><use transform="matrix(0.06172839506172839,0,0,0.06172839506172839,93.64197530864196,0)" xlink:href="#au"/><use transform="matrix(0.06172839506172839,0,0,0.06172839506172839,105.98765432098764,0)" xlink:href="#aJ"/><use transform="matrix(0.06172839506172839,0,0,0.06172839506172839,110.86419753086419,0)" xlink:href="#ax"/><use transform="matrix(0.06172839506172839,0,0,0.06172839506172839,123.20987654320987,0)" xlink:href="#aP"/><use transform="matrix(0.06172839506172839,0,0,0.06172839506172839,129.3827160493827,0)" xlink:href="#aQ"/><use transform="matrix(0.06172839506172839,0,0,0.06172839506172839,140.49382716049382,0)" xlink:href="#aw"/><use transform="matrix(0.06172839506172839,0,0,0.06172839506172839,152.8395061728395,0)" xlink:href="#at"/></g><path fill="#3a414a" d="M212-179c-10-28-35-45-73-45-59 0-87 40-87 99 0 60 29 101 89 101 43 0 62-24 78-52l27 14C228-24 195 4 139 4 59 4 22-46 18-125c-6-104 99-153 187-111 19 9 31 26 39 46" id="aR"/><g id="j"><use transform="matrix(0.06172839506172839,0,0,0.06172839506172839,0,0)" xlink:href="#aR"/><use transform="matrix(0.06172839506172839,0,0,0.06172839506172839,15.987654320987653,0)" xlink:href="#aL"/><use transform="matrix(0.06172839506172839,0,0,0.06172839506172839,23.333333333333332,0)" xlink:href="#aD"/><use transform="matrix(0.06172839506172839,0,0,0.06172839506172839,35.67901234567901,0)" xlink:href="#au"/><use transform="matrix(0.06172839506172839,0,0,0.06172839506172839,48.02469135802469,0)" xlink:href="#aC"/><use transform="matrix(0.06172839506172839,0,0,0.06172839506172839,54.19753086419753,0)" xlink:href="#aD"/></g><path fill="#3a414a" d="M106-169C34-169 62-67 57 0H25v-261h32l-1 103c12-21 28-36 61-36 89 0 53 116 60 194h-32v-121c2-32-8-49-39-48" id="aS"/><g id="k"><use transform="matrix(0.06172839506172839,0,0,0.06172839506172839,0,0)" xlink:href="#aS"/><use transform="matrix(0.06172839506172839,0,0,0.06172839506172839,12.345679012345679,0)" xlink:href="#aw"/><use transform="matrix(0.06172839506172839,0,0,0.06172839506172839,24.691358024691358,0)" xlink:href="#aK"/><use transform="matrix(0.06172839506172839,0,0,0.06172839506172839,35.80246913580247,0)" xlink:href="#aC"/><use transform="matrix(0.06172839506172839,0,0,0.06172839506172839,41.97530864197531,0)" xlink:href="#aD"/><use transform="matrix(0.06172839506172839,0,0,0.06172839506172839,54.32098765432099,0)" xlink:href="#aO"/></g><g id="l"><use transform="matrix(0.06172839506172839,0,0,0.06172839506172839,0,0)" xlink:href="#av"/><use transform="matrix(0.06172839506172839,0,0,0.06172839506172839,11.11111111111111,0)" xlink:href="#aw"/><use transform="matrix(0.06172839506172839,0,0,0.06172839506172839,23.45679012345679,0)" xlink:href="#ax"/><use transform="matrix(0.06172839506172839,0,0,0.06172839506172839,35.80246913580247,0)" xlink:href="#aD"/></g><use transform="matrix(0.06172839506172839,0,0,0.06172839506172839,0,0)" xlink:href="#aF" id="m"/><g id="n"><use transform="matrix(0.06172839506172839,0,0,0.06172839506172839,0,0)" xlink:href="#as"/><use transform="matrix(0.06172839506172839,0,0,0.06172839506172839,14.814814814814813,0)" xlink:href="#aO"/><use transform="matrix(0.06172839506172839,0,0,0.06172839506172839,27.160493827160494,0)" xlink:href="#aO"/></g><path fill="#3a414a" d="M240 0l2-218c-23 76-54 145-80 218h-23L58-218 59 0H30v-248h44l77 211c21-75 51-140 76-211h43V0h-30" id="aT"/><path fill="#3a414a" d="M195 0l-74-108L45 0H8l94-129-87-119h37l69 98 67-98h37l-84 118L233 0h-38" id="aU"/><g id="o"><use transform="matrix(0.06172839506172839,0,0,0.06172839506172839,0,0)" xlink:href="#aT"/><use transform="matrix(0.06172839506172839,0,0,0.06172839506172839,18.456790123456788,0)" xlink:href="#aU"/></g><g id="p"><use transform="matrix(0.06172839506172839,0,0,0.06172839506172839,0,0)" xlink:href="#aL"/><use transform="matrix(0.06172839506172839,0,0,0.06172839506172839,7.345679012345679,0)" xlink:href="#aD"/><use transform="matrix(0.06172839506172839,0,0,0.06172839506172839,19.691358024691358,0)" xlink:href="#aQ"/><use transform="matrix(0.06172839506172839,0,0,0.06172839506172839,30.80246913580247,0)" xlink:href="#aw"/><use transform="matrix(0.06172839506172839,0,0,0.06172839506172839,43.148148148148145,0)" xlink:href="#aL"/><use transform="matrix(0.06172839506172839,0,0,0.06172839506172839,50.49382716049382,0)" xlink:href="#aO"/></g><g id="q"><use transform="matrix(0.06172839506172839,0,0,0.06172839506172839,0,0)" xlink:href="#ay"/><use transform="matrix(0.06172839506172839,0,0,0.06172839506172839,14.814814814814813,0)" xlink:href="#aF"/></g><path fill="#3a414a" d="M155-56V0h-30v-56H8v-25l114-167h33v167h35v25h-35zm-30-156c-27 46-58 90-88 131h88v-131" id="aV"/><use transform="matrix(0.06172839506172839,0,0,0.06172839506172839,0,0)" xlink:href="#aV" id="r"/><path fill="#3a414a" d="M160-131c35 5 61 23 61 61C221 17 115-2 30 0v-248c76 3 177-17 177 60 0 33-19 50-47 57zm-97-11c50-1 110 9 110-42 0-47-63-36-110-37v79zm0 115c55-2 124 14 124-45 0-56-70-42-124-44v89" id="aW"/><path fill="#3a414a" d="M143 0L79-87 56-68V0H24v-261h32v163l83-92h37l-77 82L181 0h-38" id="aX"/><g id="s"><use transform="matrix(0.06172839506172839,0,0,0.06172839506172839,0,0)" xlink:href="#aW"/><use transform="matrix(0.06172839506172839,0,0,0.06172839506172839,14.814814814814813,0)" xlink:href="#aB"/><use transform="matrix(0.06172839506172839,0,0,0.06172839506172839,27.160493827160494,0)" xlink:href="#aQ"/><use transform="matrix(0.06172839506172839,0,0,0.06172839506172839,38.27160493827161,0)" xlink:href="#aX"/><use transform="matrix(0.06172839506172839,0,0,0.06172839506172839,49.38271604938272,0)" xlink:href="#aD"/><use transform="matrix(0.06172839506172839,0,0,0.06172839506172839,61.7283950617284,0)" xlink:href="#aC"/></g><path fill="#3a414a" d="M101-234c-31-9-42 10-38 44h38v23H63V0H32v-167H5v-23h27c-7-52 17-82 69-68v24" id="aY"/><g id="t"><use transform="matrix(0.06172839506172839,0,0,0.06172839506172839,0,0)" xlink:href="#aY"/><use transform="matrix(0.06172839506172839,0,0,0.06172839506172839,6.172839506172839,0)" xlink:href="#aw"/><use transform="matrix(0.06172839506172839,0,0,0.06172839506172839,18.51851851851852,0)" xlink:href="#aL"/></g><path fill="#3a414a" d="M108 0H70L1-190h34L89-25l56-165h34" id="aZ"/><g id="u"><use transform="matrix(0.06172839506172839,0,0,0.06172839506172839,0,0)" xlink:href="#as"/><use transform="matrix(0.06172839506172839,0,0,0.06172839506172839,14.814814814814813,0)" xlink:href="#aL"/><use transform="matrix(0.06172839506172839,0,0,0.06172839506172839,22.160493827160494,0)" xlink:href="#aQ"/><use transform="matrix(0.06172839506172839,0,0,0.06172839506172839,33.27160493827161,0)" xlink:href="#aS"/><use transform="matrix(0.06172839506172839,0,0,0.06172839506172839,45.617283950617285,0)" xlink:href="#aJ"/><use transform="matrix(0.06172839506172839,0,0,0.06172839506172839,50.49382716049383,0)" xlink:href="#aZ"/><use transform="matrix(0.06172839506172839,0,0,0.06172839506172839,61.60493827160494,0)" xlink:href="#aD"/></g><use transform="matrix(0.06172839506172839,0,0,0.06172839506172839,0,0)" xlink:href="#aE" id="v"/><path fill="#3a414a" d="M115-194c55 1 70 41 70 98S169 2 115 4C84 4 66-9 55-30l1 105H24l-1-265h31l2 30c10-21 28-34 59-34zm-8 174c40 0 45-34 45-75s-6-73-45-74c-42 0-51 32-51 76 0 43 10 73 51 73" id="ba"/><path fill="#3a414a" d="M24 0v-261h32V0H24" id="bb"/><g id="w"><use transform="matrix(0.06172839506172839,0,0,0.06172839506172839,0,0)" xlink:href="#as"/><use transform="matrix(0.06172839506172839,0,0,0.06172839506172839,14.814814814814813,0)" xlink:href="#ba"/><use transform="matrix(0.06172839506172839,0,0,0.06172839506172839,27.160493827160494,0)" xlink:href="#ba"/><use transform="matrix(0.06172839506172839,0,0,0.06172839506172839,39.50617283950617,0)" xlink:href="#bb"/><use transform="matrix(0.06172839506172839,0,0,0.06172839506172839,44.382716049382715,0)" xlink:href="#aM"/></g><path fill="#3a414a" d="M30-248c87 1 191-15 191 75 0 78-77 80-158 76V0H30v-248zm33 125c57 0 124 11 124-50 0-59-68-47-124-48v98" id="bc"/><g id="x"><use transform="matrix(0.06172839506172839,0,0,0.06172839506172839,0,0)" xlink:href="#bc"/><use transform="matrix(0.06172839506172839,0,0,0.06172839506172839,14.814814814814813,0)" xlink:href="#aw"/><use transform="matrix(0.06172839506172839,0,0,0.06172839506172839,27.160493827160494,0)" xlink:href="#bb"/><use transform="matrix(0.06172839506172839,0,0,0.06172839506172839,32.03703703703704,0)" xlink:href="#aJ"/><use transform="matrix(0.06172839506172839,0,0,0.06172839506172839,36.91358024691358,0)" xlink:href="#aQ"/><use transform="matrix(0.06172839506172839,0,0,0.06172839506172839,48.0246913580247,0)" xlink:href="#aM"/></g><path fill="#3a414a" d="M266 0h-40l-56-210L115 0H75L2-248h35L96-30l15-64 43-154h32l59 218 59-218h35" id="bd"/><g id="y"><use transform="matrix(0.06172839506172839,0,0,0.06172839506172839,0,0)" xlink:href="#as"/><use transform="matrix(0.06172839506172839,0,0,0.06172839506172839,14.012345679012345,0)" xlink:href="#bd"/><use transform="matrix(0.06172839506172839,0,0,0.06172839506172839,34.938271604938265,0)" xlink:href="#ay"/></g><path fill="#3a414a" d="M33 0v-248h34V0H33" id="be"/><g id="z"><use transform="matrix(0.06172839506172839,0,0,0.06172839506172839,0,0)" xlink:href="#be"/><use transform="matrix(0.06172839506172839,0,0,0.06172839506172839,6.172839506172839,0)" xlink:href="#as"/><use transform="matrix(0.06172839506172839,0,0,0.06172839506172839,20.98765432098765,0)" xlink:href="#aT"/></g><path fill="#3a414a" d="M64 0c3-98 48-159 88-221H18v-27h164v26C143-157 98-101 97 0H64" id="bf"/><use transform="matrix(0.06172839506172839,0,0,0.06172839506172839,0,0)" xlink:href="#bf" id="A"/><g id="B"><use transform="matrix(0.06172839506172839,0,0,0.06172839506172839,0,0)" xlink:href="#bc"/><use transform="matrix(0.06172839506172839,0,0,0.06172839506172839,14.814814814814813,0)" xlink:href="#aw"/><use transform="matrix(0.06172839506172839,0,0,0.06172839506172839,27.160493827160494,0)" xlink:href="#bb"/><use transform="matrix(0.06172839506172839,0,0,0.06172839506172839,32.03703703703704,0)" xlink:href="#aJ"/><use transform="matrix(0.06172839506172839,0,0,0.06172839506172839,36.91358024691358,0)" xlink:href="#aQ"/><use transform="matrix(0.06172839506172839,0,0,0.06172839506172839,48.0246913580247,0)" xlink:href="#aM"/></g><g id="C"><use transform="matrix(0.06172839506172839,0,0,0.06172839506172839,0,0)" xlink:href="#as"/><use transform="matrix(0.06172839506172839,0,0,0.06172839506172839,14.012345679012345,0)" xlink:href="#bd"/><use transform="matrix(0.06172839506172839,0,0,0.06172839506172839,34.938271604938265,0)" xlink:href="#ay"/></g><path fill="#3a414a" d="M30 0v-248h33v221h125V0H30" id="bg"/><path fill="#3a414a" d="M115-194c53 0 69 39 70 98 0 66-23 100-70 100C84 3 66-7 56-30L54 0H23l1-261h32v101c10-23 28-34 59-34zm-8 174c40 0 45-34 45-75 0-40-5-75-45-74-42 0-51 32-51 76 0 43 10 73 51 73" id="bh"/><g id="D"><use transform="matrix(0.06172839506172839,0,0,0.06172839506172839,0,0)" xlink:href="#bg"/><use transform="matrix(0.06172839506172839,0,0,0.06172839506172839,12.345679012345679,0)" xlink:href="#au"/><use transform="matrix(0.06172839506172839,0,0,0.06172839506172839,24.691358024691358,0)" xlink:href="#at"/><use transform="matrix(0.06172839506172839,0,0,0.06172839506172839,43.148148148148145,0)" xlink:href="#bh"/><use transform="matrix(0.06172839506172839,0,0,0.06172839506172839,55.49382716049382,0)" xlink:href="#aO"/><use transform="matrix(0.06172839506172839,0,0,0.06172839506172839,67.8395061728395,0)" xlink:href="#au"/></g><path fill="#3a414a" d="M134-131c28 9 52 24 51 62-1 50-34 73-85 73S17-19 16-69c0-36 21-54 49-61-75-25-45-126 34-121 46 3 78 18 79 63 0 33-17 51-44 57zm-34-11c31 1 46-15 46-44 0-28-17-43-47-42-29 0-46 13-45 42 1 28 16 44 46 44zm1 122c35 0 51-18 51-52 0-30-18-46-53-46-33 0-51 17-51 47 0 34 19 51 53 51" id="bi"/><use transform="matrix(0.06172839506172839,0,0,0.06172839506172839,0,0)" xlink:href="#bi" id="E"/><g id="F"><use transform="matrix(0.06172839506172839,0,0,0.06172839506172839,0,0)" xlink:href="#aA"/><use transform="matrix(0.06172839506172839,0,0,0.06172839506172839,15.987654320987653,0)" xlink:href="#aw"/><use transform="matrix(0.06172839506172839,0,0,0.06172839506172839,28.333333333333332,0)" xlink:href="#bb"/><use transform="matrix(0.06172839506172839,0,0,0.06172839506172839,33.20987654320987,0)" xlink:href="#aD"/></g><g id="G"><use transform="matrix(0.06172839506172839,0,0,0.06172839506172839,0,0)" xlink:href="#bg"/><use transform="matrix(0.06172839506172839,0,0,0.06172839506172839,12.345679012345679,0)" xlink:href="#au"/><use transform="matrix(0.06172839506172839,0,0,0.06172839506172839,24.691358024691358,0)" xlink:href="#at"/><use transform="matrix(0.06172839506172839,0,0,0.06172839506172839,43.148148148148145,0)" xlink:href="#bh"/><use transform="matrix(0.06172839506172839,0,0,0.06172839506172839,55.49382716049382,0)" xlink:href="#aO"/><use transform="matrix(0.06172839506172839,0,0,0.06172839506172839,67.8395061728395,0)" xlink:href="#au"/></g><path fill="#3a414a" d="M99-251c64 0 84 50 84 122C183-37 130 33 47-8c-14-7-20-23-25-40l30-5c6 39 69 39 84 7 9-19 16-44 16-74-10 22-31 35-62 35-49 0-73-33-73-83 0-54 28-83 82-83zm-1 141c31-1 51-18 51-49 0-36-14-67-51-67-34 0-49 23-49 58 0 34 15 58 49 58" id="bj"/><use transform="matrix(0.06172839506172839,0,0,0.06172839506172839,0,0)" xlink:href="#bj" id="H"/><g id="I"><use transform="matrix(0.06172839506172839,0,0,0.06172839506172839,0,0)" xlink:href="#bg"/><use transform="matrix(0.06172839506172839,0,0,0.06172839506172839,12.345679012345679,0)" xlink:href="#au"/><use transform="matrix(0.06172839506172839,0,0,0.06172839506172839,24.691358024691358,0)" xlink:href="#at"/><use transform="matrix(0.06172839506172839,0,0,0.06172839506172839,43.148148148148145,0)" xlink:href="#bh"/><use transform="matrix(0.06172839506172839,0,0,0.06172839506172839,55.49382716049382,0)" xlink:href="#aO"/><use transform="matrix(0.06172839506172839,0,0,0.06172839506172839,67.8395061728395,0)" xlink:href="#au"/></g><path fill="#3a414a" d="M63-220v92h138v28H63V0H30v-248h175v28H63" id="bk"/><g id="J"><use transform="matrix(0.06172839506172839,0,0,0.06172839506172839,0,0)" xlink:href="#bk"/><use transform="matrix(0.06172839506172839,0,0,0.06172839506172839,13.518518518518517,0)" xlink:href="#aB"/><use transform="matrix(0.06172839506172839,0,0,0.06172839506172839,25.864197530864196,0)" xlink:href="#ax"/><use transform="matrix(0.06172839506172839,0,0,0.06172839506172839,38.20987654320987,0)" xlink:href="#aQ"/><use transform="matrix(0.06172839506172839,0,0,0.06172839506172839,49.32098765432099,0)" xlink:href="#aC"/><use transform="matrix(0.06172839506172839,0,0,0.06172839506172839,55.49382716049383,0)" xlink:href="#aJ"/><use transform="matrix(0.06172839506172839,0,0,0.06172839506172839,60.370370370370374,0)" xlink:href="#aw"/><use transform="matrix(0.06172839506172839,0,0,0.06172839506172839,72.71604938271605,0)" xlink:href="#ax"/></g><path fill="#3a414a" d="M101-251c68 0 85 55 85 127S166 4 100 4C33 4 14-52 14-124c0-73 17-127 87-127zm-1 229c47 0 54-49 54-102s-4-102-53-102c-51 0-55 48-55 102 0 53 5 102 54 102" id="bl"/><g id="K"><use transform="matrix(0.06172839506172839,0,0,0.06172839506172839,0,0)" xlink:href="#aG"/><use transform="matrix(0.06172839506172839,0,0,0.06172839506172839,12.345679012345679,0)" xlink:href="#bl"/></g><path fill="#3a414a" d="M137 0h-34L2-248h35l83 218 83-218h36" id="bm"/><g id="L"><use transform="matrix(0.06172839506172839,0,0,0.06172839506172839,0,0)" xlink:href="#bm"/><use transform="matrix(0.06172839506172839,0,0,0.06172839506172839,13.580246913580245,0)" xlink:href="#aD"/><use transform="matrix(0.06172839506172839,0,0,0.06172839506172839,25.925925925925924,0)" xlink:href="#aL"/><use transform="matrix(0.06172839506172839,0,0,0.06172839506172839,33.2716049382716,0)" xlink:href="#aJ"/><use transform="matrix(0.06172839506172839,0,0,0.06172839506172839,38.148148148148145,0)" xlink:href="#aY"/><use transform="matrix(0.06172839506172839,0,0,0.06172839506172839,44.32098765432099,0)" xlink:href="#aM"/></g><path fill="#3a414a" d="M30-248c118-7 216 8 213 122C240-48 200 0 122 0H30v-248zM63-27c89 8 146-16 146-99s-60-101-146-95v194" id="bn"/><g id="M"><use transform="matrix(0.06172839506172839,0,0,0.06172839506172839,0,0)" xlink:href="#bn"/><use transform="matrix(0.06172839506172839,0,0,0.06172839506172839,15.987654320987653,0)" xlink:href="#aw"/><use transform="matrix(0.06172839506172839,0,0,0.06172839506172839,28.333333333333332,0)" xlink:href="#at"/><use transform="matrix(0.06172839506172839,0,0,0.06172839506172839,46.79012345679012,0)" xlink:href="#au"/><use transform="matrix(0.06172839506172839,0,0,0.06172839506172839,59.1358024691358,0)" xlink:href="#aJ"/><use transform="matrix(0.06172839506172839,0,0,0.06172839506172839,64.01234567901234,0)" xlink:href="#ax"/></g><path fill="#3a414a" d="M234-2c-28 10-62 0-77-18C117 19 8 12 13-65c3-43 29-61 60-76-25-40-17-114 47-108 35 3 59 15 59 50 0 44-40 53-71 69 14 26 32 50 51 72 14-21 24-43 30-72l26 8c-9 33-21 57-38 82 13 13 33 22 57 15v23zM97-151c25-10 52-18 56-48-1-18-13-29-33-29-42 0-39 50-23 77zM42-66c-3 51 71 58 98 28-20-24-41-51-56-80-23 10-40 24-42 52" id="bo"/><use transform="matrix(0.06172839506172839,0,0,0.06172839506172839,0,0)" xlink:href="#bo" id="N"/><g id="O"><use transform="matrix(0.06172839506172839,0,0,0.06172839506172839,0,0)" xlink:href="#ay"/><use transform="matrix(0.06172839506172839,0,0,0.06172839506172839,14.814814814814813,0)" xlink:href="#aD"/><use transform="matrix(0.06172839506172839,0,0,0.06172839506172839,27.160493827160494,0)" xlink:href="#aC"/><use transform="matrix(0.06172839506172839,0,0,0.06172839506172839,33.333333333333336,0)" xlink:href="#aB"/><use transform="matrix(0.06172839506172839,0,0,0.06172839506172839,45.67901234567901,0)" xlink:href="#ba"/></g><g id="P"><use transform="matrix(0.06172839506172839,0,0,0.06172839506172839,0,0)" xlink:href="#bn"/><use transform="matrix(0.06172839506172839,0,0,0.06172839506172839,15.987654320987653,0)" xlink:href="#aT"/><use transform="matrix(0.06172839506172839,0,0,0.06172839506172839,34.44444444444444,0)" xlink:href="#as"/><use transform="matrix(0.06172839506172839,0,0,0.06172839506172839,49.25925925925925,0)" xlink:href="#aA"/><use transform="matrix(0.06172839506172839,0,0,0.06172839506172839,65.24691358024691,0)" xlink:href="#aR"/></g><g id="Q"><use transform="matrix(0.06172839506172839,0,0,0.06172839506172839,0,0)" xlink:href="#aG"/><use transform="matrix(0.06172839506172839,0,0,0.06172839506172839,10.679012345679013,0)" xlink:href="#aG"/></g><g id="R"><use transform="matrix(0.06172839506172839,0,0,0.06172839506172839,0,0)" xlink:href="#as"/><use transform="matrix(0.06172839506172839,0,0,0.06172839506172839,14.814814814814813,0)" xlink:href="#aQ"/><use transform="matrix(0.06172839506172839,0,0,0.06172839506172839,25.925925925925924,0)" xlink:href="#aC"/><use transform="matrix(0.06172839506172839,0,0,0.06172839506172839,32.098765432098766,0)" xlink:href="#aJ"/><use transform="matrix(0.06172839506172839,0,0,0.06172839506172839,36.97530864197531,0)" xlink:href="#aZ"/><use transform="matrix(0.06172839506172839,0,0,0.06172839506172839,48.08641975308642,0)" xlink:href="#aD"/></g><g id="S"><use transform="matrix(0.06172839506172839,0,0,0.06172839506172839,0,0)" xlink:href="#aA"/><use transform="matrix(0.06172839506172839,0,0,0.06172839506172839,15.987654320987653,0)" xlink:href="#aD"/><use transform="matrix(0.06172839506172839,0,0,0.06172839506172839,28.333333333333332,0)" xlink:href="#aQ"/><use transform="matrix(0.06172839506172839,0,0,0.06172839506172839,39.44444444444444,0)" xlink:href="#aD"/><use transform="matrix(0.06172839506172839,0,0,0.06172839506172839,51.79012345679012,0)" xlink:href="#aJ"/><use transform="matrix(0.06172839506172839,0,0,0.06172839506172839,56.666666666666664,0)" xlink:href="#ba"/><use transform="matrix(0.06172839506172839,0,0,0.06172839506172839,69.01234567901234,0)" xlink:href="#aC"/></g><g id="T"><use transform="matrix(0.06172839506172839,0,0,0.06172839506172839,0,0)" xlink:href="#aA"/><use transform="matrix(0.06172839506172839,0,0,0.06172839506172839,15.987654320987653,0)" xlink:href="#aB"/><use transform="matrix(0.06172839506172839,0,0,0.06172839506172839,28.333333333333332,0)" xlink:href="#bb"/><use transform="matrix(0.06172839506172839,0,0,0.06172839506172839,33.20987654320987,0)" xlink:href="#aD"/></g><g id="U"><use transform="matrix(0.06172839506172839,0,0,0.06172839506172839,0,0)" xlink:href="#ay"/><use transform="matrix(0.06172839506172839,0,0,0.06172839506172839,14.814814814814813,0)" xlink:href="#aD"/><use transform="matrix(0.06172839506172839,0,0,0.06172839506172839,27.160493827160494,0)" xlink:href="#aC"/></g><path fill="#333" d="M24-248c120-7 223 5 221 122C244-46 201 0 124 0H24v-248zM76-40c74 7 117-18 117-86 0-67-45-88-117-82v168" id="bp"/><path fill="#333" d="M195 0l-88-114-31 24V0H24v-248h52v113l112-113h60L142-143 257 0h-62" id="bq"/><path fill="#333" d="M24 0v-248h52V0H24" id="br"/><path fill="#333" d="M230 0l2-204L168 0h-37L68-204 70 0H24v-248h70l56 185 57-185h69V0h-46" id="bs"/><g id="V"><use transform="matrix(0.04938271604938272,0,0,0.04938271604938272,0,0)" xlink:href="#bp"/><use transform="matrix(0.04938271604938272,0,0,0.04938271604938272,12.790123456790125,0)" xlink:href="#bq"/><use transform="matrix(0.04938271604938272,0,0,0.04938271604938272,25.58024691358025,0)" xlink:href="#br"/><use transform="matrix(0.04938271604938272,0,0,0.04938271604938272,30.518518518518523,0)" xlink:href="#bs"/></g><path fill="#333" d="M168-19C124 19 11 11 16-68c3-43 29-60 59-75-25-44-12-111 53-106 37 3 64 15 64 52 0 43-40 52-69 68 12 22 27 41 43 59 14-19 21-38 28-64l37 13c-8 29-19 52-34 74 12 10 32 16 52 10v35c-28 11-65-2-81-17zm-58-139c19-9 43-14 43-39 0-14-10-22-25-22-34 0-33 41-18 61zM60-68c-3 40 55 47 79 25-18-20-34-42-48-67-18 8-30 20-31 42" id="bt"/><use transform="matrix(0.04938271604938272,0,0,0.04938271604938272,0,0)" xlink:href="#bt" id="W"/><path fill="#333" d="M199 0l-22-63H83L61 0H9l90-248h61L250 0h-51zm-33-102l-36-108c-10 38-24 72-36 108h72" id="bu"/><path fill="#333" d="M240-174c0 40-23 61-54 70L253 0h-59l-57-94H76V0H24v-248c93 4 217-23 216 74zM76-134c48-2 112 12 112-38 0-48-66-32-112-35v73" id="bv"/><path fill="#333" d="M67-125c0 53 21 87 73 88 37 1 54-22 65-47l45 17C233-25 199 4 140 4 58 4 20-42 15-125 8-235 124-281 211-232c18 10 29 29 36 50l-46 12c-8-25-30-41-62-41-52 0-71 34-72 86" id="bw"/><g id="X"><use transform="matrix(0.04938271604938272,0,0,0.04938271604938272,0,0)" xlink:href="#bp"/><use transform="matrix(0.04938271604938272,0,0,0.04938271604938272,12.790123456790125,0)" xlink:href="#bs"/><use transform="matrix(0.04938271604938272,0,0,0.04938271604938272,27.555555555555557,0)" xlink:href="#bu"/><use transform="matrix(0.04938271604938272,0,0,0.04938271604938272,40.345679012345684,0)" xlink:href="#bv"/><use transform="matrix(0.04938271604938272,0,0,0.04938271604938272,53.135802469135804,0)" xlink:href="#bw"/></g><g id="Y"><use transform="matrix(0.04938271604938272,0,0,0.04938271604938272,0,0)" xlink:href="#br"/><use transform="matrix(0.04938271604938272,0,0,0.04938271604938272,4.938271604938272,0)" xlink:href="#bu"/><use transform="matrix(0.04938271604938272,0,0,0.04938271604938272,17.7283950617284,0)" xlink:href="#bs"/></g><path fill="#333" d="M24 0v-248h195v40H76v63h132v40H76v65h150V0H24" id="bx"/><path fill="#333" d="M144 0l-44-69L55 0H2l70-98-66-92h53l41 62 40-62h54l-67 91 71 99h-54" id="by"/><path fill="#333" d="M185-48c-13 30-37 53-82 52C43 2 14-33 14-96s30-98 90-98c62 0 83 45 84 108H66c0 31 8 55 39 56 18 0 30-7 34-22zm-45-69c5-46-57-63-70-21-2 6-4 13-4 21h74" id="bz"/><path fill="#333" d="M190-63c-7 42-38 67-86 67-59 0-84-38-90-98-12-110 154-137 174-36l-49 2c-2-19-15-32-35-32-30 0-35 28-38 64-6 74 65 87 74 30" id="bA"/><path fill="#333" d="M85 4C-2 5 27-109 22-190h50c7 57-23 150 33 157 60-5 35-97 40-157h50l1 190h-47c-2-12 1-28-3-38-12 25-28 42-61 42" id="bB"/><path fill="#333" d="M115-3C79 11 28 4 28-45v-112H4v-33h27l15-45h31v45h36v33H77v99c-1 23 16 31 38 25v30" id="bC"/><path fill="#333" d="M25-224v-37h50v37H25zM25 0v-190h50V0H25" id="bD"/><path fill="#333" d="M110-194c64 0 96 36 96 99 0 64-35 99-97 99-61 0-95-36-95-99 0-62 34-99 96-99zm-1 164c35 0 45-28 45-65 0-40-10-65-43-65-34 0-45 26-45 65 0 36 10 65 43 65" id="bE"/><path fill="#333" d="M135-194c87-1 58 113 63 194h-50c-7-57 23-157-34-157-59 0-34 97-39 157H25l-1-190h47c2 12-1 28 3 38 12-26 28-41 61-42" id="bF"/><g id="Z"><use transform="matrix(0.04938271604938272,0,0,0.04938271604938272,0,0)" xlink:href="#bx"/><use transform="matrix(0.04938271604938272,0,0,0.04938271604938272,11.851851851851853,0)" xlink:href="#by"/><use transform="matrix(0.04938271604938272,0,0,0.04938271604938272,21.7283950617284,0)" xlink:href="#bz"/><use transform="matrix(0.04938271604938272,0,0,0.04938271604938272,31.60493827160494,0)" xlink:href="#bA"/><use transform="matrix(0.04938271604938272,0,0,0.04938271604938272,41.48148148148149,0)" xlink:href="#bB"/><use transform="matrix(0.04938271604938272,0,0,0.04938271604938272,52.2962962962963,0)" xlink:href="#bC"/><use transform="matrix(0.04938271604938272,0,0,0.04938271604938272,58.17283950617284,0)" xlink:href="#bD"/><use transform="matrix(0.04938271604938272,0,0,0.04938271604938272,63.111111111111114,0)" xlink:href="#bE"/><use transform="matrix(0.04938271604938272,0,0,0.04938271604938272,73.92592592592594,0)" xlink:href="#bF"/></g><path fill="#333" d="M25 0v-261h50V0H25" id="bG"/><g id="aa"><use transform="matrix(0.04938271604938272,0,0,0.04938271604938272,0,0)" xlink:href="#bv"/><use transform="matrix(0.04938271604938272,0,0,0.04938271604938272,12.790123456790125,0)" xlink:href="#bE"/><use transform="matrix(0.04938271604938272,0,0,0.04938271604938272,23.60493827160494,0)" xlink:href="#bG"/><use transform="matrix(0.04938271604938272,0,0,0.04938271604938272,28.543209876543212,0)" xlink:href="#bz"/></g><g id="ab"><use transform="matrix(0.06172839506172839,0,0,0.06172839506172839,0,0)" xlink:href="#aR"/><use transform="matrix(0.06172839506172839,0,0,0.06172839506172839,15.987654320987653,0)" xlink:href="#bb"/><use transform="matrix(0.06172839506172839,0,0,0.06172839506172839,20.864197530864196,0)" xlink:href="#aw"/><use transform="matrix(0.06172839506172839,0,0,0.06172839506172839,33.20987654320987,0)" xlink:href="#aB"/><use transform="matrix(0.06172839506172839,0,0,0.06172839506172839,45.55555555555555,0)" xlink:href="#aO"/><use transform="matrix(0.06172839506172839,0,0,0.06172839506172839,57.90123456790123,0)" xlink:href="#bd"/><use transform="matrix(0.06172839506172839,0,0,0.06172839506172839,78.02469135802468,0)" xlink:href="#au"/><use transform="matrix(0.06172839506172839,0,0,0.06172839506172839,90.37037037037037,0)" xlink:href="#aC"/><use transform="matrix(0.06172839506172839,0,0,0.06172839506172839,96.5432098765432,0)" xlink:href="#aQ"/><use transform="matrix(0.06172839506172839,0,0,0.06172839506172839,107.65432098765432,0)" xlink:href="#aS"/></g><path fill="#3a414a" d="M110-160c48 1 74 30 74 79 0 53-28 85-80 85-65 0-83-55-86-122-5-90 50-162 133-122 14 7 22 21 27 39l-31 6c-5-40-67-38-82-6-9 19-15 44-15 74 11-20 30-34 60-33zm-7 138c34 0 49-23 49-58s-16-56-50-56c-29 0-50 16-49 49 1 36 15 65 50 65" id="bH"/><use transform="matrix(0.06172839506172839,0,0,0.06172839506172839,0,0)" xlink:href="#bH" id="ac"/><g id="ad"><use transform="matrix(0.06172839506172839,0,0,0.06172839506172839,0,0)" xlink:href="#bg"/><use transform="matrix(0.06172839506172839,0,0,0.06172839506172839,12.345679012345679,0)" xlink:href="#aw"/><use transform="matrix(0.06172839506172839,0,0,0.06172839506172839,24.691358024691358,0)" xlink:href="#aI"/></g><path fill="#3a414a" d="M143 4C61 4 22-44 18-125c-5-107 100-154 193-111 17 8 29 25 37 43l-32 9c-13-25-37-40-76-40-61 0-88 39-88 99 0 61 29 100 91 101 35 0 62-11 79-27v-45h-74v-28h105v86C228-13 192 4 143 4" id="bI"/><g id="ae"><use transform="matrix(0.06172839506172839,0,0,0.06172839506172839,0,0)" xlink:href="#bI"/><use transform="matrix(0.06172839506172839,0,0,0.06172839506172839,17.28395061728395,0)" xlink:href="#aL"/><use transform="matrix(0.06172839506172839,0,0,0.06172839506172839,24.629629629629626,0)" xlink:href="#aw"/><use transform="matrix(0.06172839506172839,0,0,0.06172839506172839,36.9753086419753,0)" xlink:href="#aB"/><use transform="matrix(0.06172839506172839,0,0,0.06172839506172839,49.32098765432098,0)" xlink:href="#ba"/></g><path fill="#333" d="M135-150c-39-12-60 13-60 57V0H25l-1-190h47c2 13-1 29 3 40 6-28 27-53 61-41v41" id="bJ"/><path fill="#333" d="M133-34C117-15 103 5 69 4 32 3 11-16 11-54c-1-60 55-63 116-61 1-26-3-47-28-47-18 1-26 9-28 27l-52-2c7-38 36-58 82-57s74 22 75 68l1 82c-1 14 12 18 25 15v27c-30 8-71 5-69-32zm-48 3c29 0 43-24 42-57-32 0-66-3-65 30 0 17 8 27 23 27" id="bK"/><g id="af"><use transform="matrix(0.04938271604938272,0,0,0.04938271604938272,0,0)" xlink:href="#bw"/><use transform="matrix(0.04938271604938272,0,0,0.04938271604938272,12.790123456790125,0)" xlink:href="#bJ"/><use transform="matrix(0.04938271604938272,0,0,0.04938271604938272,19.703703703703706,0)" xlink:href="#bz"/><use transform="matrix(0.04938271604938272,0,0,0.04938271604938272,29.58024691358025,0)" xlink:href="#bK"/><use transform="matrix(0.04938271604938272,0,0,0.04938271604938272,39.4567901234568,0)" xlink:href="#bC"/><use transform="matrix(0.04938271604938272,0,0,0.04938271604938272,45.33333333333334,0)" xlink:href="#bz"/></g><path fill="#333" d="M24 0v-248h52v208h133V0H24" id="bL"/><path fill="#333" d="M195-6C206 82 75 100 31 46c-4-6-6-13-8-21l49-6c3 16 16 24 34 25 40 0 42-37 40-79-11 22-30 35-61 35-53 0-70-43-70-97 0-56 18-96 73-97 30 0 46 14 59 34l2-30h47zm-90-29c32 0 41-27 41-63 0-35-9-62-40-62-32 0-39 29-40 63 0 36 9 62 39 62" id="bM"/><g id="ag"><use transform="matrix(0.04938271604938272,0,0,0.04938271604938272,0,0)" xlink:href="#bL"/><use transform="matrix(0.04938271604938272,0,0,0.04938271604938272,10.814814814814815,0)" xlink:href="#bE"/><use transform="matrix(0.04938271604938272,0,0,0.04938271604938272,21.62962962962963,0)" xlink:href="#bM"/></g><path fill="#333" d="M169-182c-1-43-94-46-97-3 18 66 151 10 154 114 3 95-165 93-204 36-6-8-10-19-12-30l50-8c3 46 112 56 116 5-17-69-150-10-154-114-4-87 153-88 188-35 5 8 8 18 10 28" id="bN"/><path fill="#333" d="M220-157c-53 9-28 100-34 157h-49v-107c1-27-5-49-29-50C55-147 81-57 75 0H25l-1-190h47c2 12-1 28 3 38 10-53 101-56 108 0 13-22 24-43 59-42 82 1 51 116 57 194h-49v-107c-1-25-5-48-29-50" id="bO"/><path fill="#333" d="M137-138c1-29-70-34-71-4 15 46 118 7 119 86 1 83-164 76-172 9l43-7c4 19 20 25 44 25 33 8 57-30 24-41C81-84 22-81 20-136c-2-80 154-74 161-7" id="bP"/><g id="ah"><use transform="matrix(0.04938271604938272,0,0,0.04938271604938272,0,0)" xlink:href="#bN"/><use transform="matrix(0.04938271604938272,0,0,0.04938271604938272,11.851851851851853,0)" xlink:href="#bC"/><use transform="matrix(0.04938271604938272,0,0,0.04938271604938272,17.728395061728396,0)" xlink:href="#bJ"/><use transform="matrix(0.04938271604938272,0,0,0.04938271604938272,24.641975308641975,0)" xlink:href="#bz"/><use transform="matrix(0.04938271604938272,0,0,0.04938271604938272,34.51851851851852,0)" xlink:href="#bK"/><use transform="matrix(0.04938271604938272,0,0,0.04938271604938272,44.39506172839506,0)" xlink:href="#bO"/><use transform="matrix(0.04938271604938272,0,0,0.04938271604938272,60.19753086419754,0)" xlink:href="#bP"/></g><path fill="#333" d="M238-95c0 69-44 99-111 99C63 4 22-25 22-93v-155h51v151c-1 38 19 59 55 60 90 1 49-130 58-211h52v153" id="bQ"/><g id="ai"><use transform="matrix(0.04938271604938272,0,0,0.04938271604938272,0,0)" xlink:href="#bQ"/><use transform="matrix(0.04938271604938272,0,0,0.04938271604938272,12.790123456790125,0)" xlink:href="#bP"/><use transform="matrix(0.04938271604938272,0,0,0.04938271604938272,22.66666666666667,0)" xlink:href="#bz"/></g><path fill="#333" d="M135-194c52 0 70 43 70 98 0 56-19 99-73 100-30 1-46-15-58-35L72 0H24l1-261h50v104c11-23 29-37 60-37zM114-30c31 0 40-27 40-66 0-37-7-63-39-63s-41 28-41 65c0 36 8 64 40 64" id="bR"/><path fill="#333" d="M88-194c31-1 46 15 58 34l-1-101h50l1 261h-48c-2-10 0-23-3-31C134-8 116 4 84 4 32 4 16-41 15-95c0-56 19-97 73-99zm17 164c33 0 40-30 41-66 1-37-9-64-41-64s-38 30-39 65c0 43 13 65 39 65" id="bS"/><g id="aj"><use transform="matrix(0.04938271604938272,0,0,0.04938271604938272,0,0)" xlink:href="#bL"/><use transform="matrix(0.04938271604938272,0,0,0.04938271604938272,10.814814814814815,0)" xlink:href="#bK"/><use transform="matrix(0.04938271604938272,0,0,0.04938271604938272,20.69135802469136,0)" xlink:href="#bO"/><use transform="matrix(0.04938271604938272,0,0,0.04938271604938272,36.49382716049383,0)" xlink:href="#bR"/><use transform="matrix(0.04938271604938272,0,0,0.04938271604938272,47.308641975308646,0)" xlink:href="#bS"/><use transform="matrix(0.04938271604938272,0,0,0.04938271604938272,58.12345679012346,0)" xlink:href="#bK"/></g><g id="ak"><use transform="matrix(0.04938271604938272,0,0,0.04938271604938272,0,0)" xlink:href="#bK"/><use transform="matrix(0.04938271604938272,0,0,0.04938271604938272,9.876543209876544,0)" xlink:href="#bP"/></g><g id="al"><use transform="matrix(0.04938271604938272,0,0,0.04938271604938272,0,0)" xlink:href="#bu"/><use transform="matrix(0.04938271604938272,0,0,0.04938271604938272,12.790123456790125,0)" xlink:href="#bA"/><use transform="matrix(0.04938271604938272,0,0,0.04938271604938272,22.66666666666667,0)" xlink:href="#bC"/><use transform="matrix(0.04938271604938272,0,0,0.04938271604938272,28.54320987654322,0)" xlink:href="#bD"/><use transform="matrix(0.04938271604938272,0,0,0.04938271604938272,33.48148148148149,0)" xlink:href="#bE"/><use transform="matrix(0.04938271604938272,0,0,0.04938271604938272,44.296296296296305,0)" xlink:href="#bF"/></g><path fill="#333" d="M128-127c34 4 56 21 59 58 7 91-148 94-172 28-4-9-6-17-7-26l51-5c1 24 16 35 40 36 23 0 39-12 38-36-1-31-31-36-65-34v-40c32 2 59-3 59-33 0-20-13-33-34-33s-33 13-35 32l-50-3c6-44 37-68 86-68 50 0 83 20 83 66 0 35-22 52-53 58" id="bT"/><g id="am"><use transform="matrix(0.04938271604938272,0,0,0.04938271604938272,0,0)" xlink:href="#bN"/><use transform="matrix(0.04938271604938272,0,0,0.04938271604938272,11.851851851851853,0)" xlink:href="#bT"/></g><g id="an"><use transform="matrix(0.04938271604938272,0,0,0.04938271604938272,0,0)" xlink:href="#bK"/><use transform="matrix(0.04938271604938272,0,0,0.04938271604938272,9.876543209876544,0)" xlink:href="#bP"/></g><g id="ao"><use transform="matrix(0.04938271604938272,0,0,0.04938271604938272,0,0)" xlink:href="#bN"/><use transform="matrix(0.04938271604938272,0,0,0.04938271604938272,11.851851851851853,0)" xlink:href="#bC"/><use transform="matrix(0.04938271604938272,0,0,0.04938271604938272,17.728395061728396,0)" xlink:href="#bE"/><use transform="matrix(0.04938271604938272,0,0,0.04938271604938272,28.543209876543205,0)" xlink:href="#bJ"/><use transform="matrix(0.04938271604938272,0,0,0.04938271604938272,35.45679012345679,0)" xlink:href="#bK"/><use transform="matrix(0.04938271604938272,0,0,0.04938271604938272,45.333333333333336,0)" xlink:href="#bM"/><use transform="matrix(0.04938271604938272,0,0,0.04938271604938272,56.14814814814815,0)" xlink:href="#bz"/></g><g id="ap"><use transform="matrix(0.04938271604938272,0,0,0.04938271604938272,0,0)" xlink:href="#bu"/><use transform="matrix(0.04938271604938272,0,0,0.04938271604938272,12.790123456790125,0)" xlink:href="#bA"/><use transform="matrix(0.04938271604938272,0,0,0.04938271604938272,22.66666666666667,0)" xlink:href="#bC"/><use transform="matrix(0.04938271604938272,0,0,0.04938271604938272,28.54320987654322,0)" xlink:href="#bD"/><use transform="matrix(0.04938271604938272,0,0,0.04938271604938272,33.48148148148149,0)" xlink:href="#bE"/><use transform="matrix(0.04938271604938272,0,0,0.04938271604938272,44.296296296296305,0)" xlink:href="#bF"/></g><g id="aq"><use transform="matrix(0.06172839506172839,0,0,0.06172839506172839,0,0)" xlink:href="#aG"/><use transform="matrix(0.06172839506172839,0,0,0.06172839506172839,12.345679012345679,0)" xlink:href="#aH"/></g><g id="ar"><use transform="matrix(0.06172839506172839,0,0,0.06172839506172839,0,0)" xlink:href="#aR"/><use transform="matrix(0.06172839506172839,0,0,0.06172839506172839,15.987654320987653,0)" xlink:href="#aw"/><use transform="matrix(0.06172839506172839,0,0,0.06172839506172839,28.333333333333332,0)" xlink:href="#ax"/><use transform="matrix(0.06172839506172839,0,0,0.06172839506172839,40.67901234567901,0)" xlink:href="#aY"/><use transform="matrix(0.06172839506172839,0,0,0.06172839506172839,46.851851851851855,0)" xlink:href="#aJ"/><use transform="matrix(0.06172839506172839,0,0,0.06172839506172839,51.7283950617284,0)" xlink:href="#aI"/><use transform="matrix(0.06172839506172839,0,0,0.06172839506172839,64.07407407407408,0)" xlink:href="#aB"/><use transform="matrix(0.06172839506172839,0,0,0.06172839506172839,76.41975308641976,0)" xlink:href="#aL"/><use transform="matrix(0.06172839506172839,0,0,0.06172839506172839,83.76543209876544,0)" xlink:href="#au"/><use transform="matrix(0.06172839506172839,0,0,0.06172839506172839,96.11111111111113,0)" xlink:href="#aC"/><use transform="matrix(0.06172839506172839,0,0,0.06172839506172839,102.28395061728396,0)" xlink:href="#aJ"/><use transform="matrix(0.06172839506172839,0,0,0.06172839506172839,107.16049382716051,0)" xlink:href="#aw"/><use transform="matrix(0.06172839506172839,0,0,0.06172839506172839,119.50617283950619,0)" xlink:href="#ax"/></g></defs></g></svg>